<?xml version="1.0" encoding="utf-8"?>
<!-- Generator: Adobe Illustrator 24.1.2, SVG Export Plug-In . SVG Version: 6.00 Build 0)  -->
<svg version="1.1" id="Capa_1" xmlns="http://www.w3.org/2000/svg" xmlns:xlink="http://www.w3.org/1999/xlink" x="0px" y="0px"
	 viewBox="0 0 252.4 330.3" style="enable-background:new 0 0 252.4 330.3;" xml:space="preserve">
<style type="text/css">
	.st0{fill:#FFFFFF;}
</style>
<g id="Capa_2_1_">
	<g id="Capa_1-2">
		<path class="st0" d="M94.9,155.4c0,0.6,0,1.1,0,1.7c0-0.9,0-1.9,0-2.8C95,154.6,95,155,94.9,155.4z"/>
		<path class="st0" d="M252.3,159.1c0-1.2-0.7-2.3-1.7-2.9c-1.5-1.4-3.1-2.6-4.8-3.6c-2.1-1.4-4.4-2.7-6.7-3.8
			c-5.2-2.6-10.6-4.6-16.3-6l-4.5-0.9c-2.1-0.4-4.2-0.4-6.2,0.1c-23.8,3.9-46.2,13.5-67.3,25c-2.4,1.3-8,4.6-8,4.7
			c-0.8,0.5-1.6,0.9-2.3,1.4c-3-12.4-6.9-24.5-11.9-36.3c-2.9-7.1-6.1-14.3-9.3-21.4c3.1-1.7,6.3-3.4,9.4-5.1
			c14.7-7.6,30-14.4,45.9-19.2c9.3-2.9,18.8-5,28.4-6.2c1.1-0.3,1.6-0.9,1.3-1.8c0-1.2-0.6-2.3-1.6-2.9c-1.4-1.4-3-2.7-4.6-3.8
			c-2.1-1.5-4.3-2.8-6.6-4c-5.1-2.8-10.4-5-16-6.7l-4.5-1.1c-2-0.5-4.2-0.6-6.3-0.2c-23.9,3-46.7,11.7-68.3,22.3
			c-2.5,1.2-8.2,4.3-8.2,4.4c-14.5,7.7-28.2,16.7-41,27.1c0.4-3.3,0.8-6.6,1.3-9.8C45.9,85,52.7,62.2,62.5,40.7
			c5.4-11.8,11.9-23.1,19.2-33.8c0.6-0.8-3.9-2.6-4.4-2.8c-3.7-1.3-7.5-2.2-11.4-2.8C62,0.5,58.1,0.1,54.1,0l-2.7,0.1
			c-1-0.1-1.9,0.2-2.5,1C35.7,20.4,25.5,41.6,18.5,63.9c-7.1,22.5-11.1,46-11.7,69.6c-0.1,6.6,0,13.2,0.4,19.7
			c-2.5,3.2-4.9,6.5-7.2,9.8c-0.2,1,0.1,2,0.9,2.7c0.9,1.4,2.1,2.6,3.4,3.5c1.7,1.4,3.5,2.6,5.3,3.7c0.2,0.2,0.5,0.4,0.8,0.5
			c0.5,0.3,1.1,0.7,1.6,0.9c2,1.1,3.9,2,5.9,2.9c4.7,2.1,9.7,4.3,14.9,5.1c2.1,0.3,6,1.4,7.5-0.8c10.4-15.1,22.6-28.8,36.3-40.8
			c3.4-3,7-5.8,10.6-8.6l-0.8,0.6l1.3-1l-0.6,0.4c1.4-1,2.8-2.1,4.3-3.1c2.2,6.6,4,13.3,5.4,20.2c0.8,3.9,1.4,7.9,2,11.9
			c0-0.4-0.1-0.7-0.1-1.1l0.3,2.8c-0.1-0.6-0.2-1.1-0.2-1.7c1.3,12.5,1.2,25.2-0.1,37.7c-4.4,3.8-8.6,7.7-12.7,11.9
			c-1,1-1.9,1.9-2.8,2.9c-9.6,10.3-18.2,21.4-25.6,33.2c-0.2,1,0.2,2,1,2.7c0.9,1.4,2.2,2.5,3.6,3.4c4.3,3.1,8.9,5.5,13.8,7.4
			c4.8,1.9,9.9,3.9,15.1,4.5c2.1,0.2,6,1.1,7.4-1.1c3.8-6,7.9-11.8,12.3-17.5c4.7-6.1,9.7-12,15.1-17.5c2.4-2.5,4.8-4.9,7.3-7.2
			c3.3-3.1,6.7-6.1,10.2-9c1.4-1.1,2.7-2.2,4.1-3.3c2.4,6.5,4.5,13.2,6.2,20c1,3.9,1.8,7.8,2.4,11.8c2,13.8,2.3,27.7,1.1,41.6
			c-0.4,4.7-0.9,9.3-1.6,13.9c0,1.6,0.4,3.2,1.3,4.6c0.9,2.2,2.2,4.2,3.8,6c4.1,5.3,8.8,10,14.1,14l5.2,3.8c2.8,2,5.9,3.6,9.1,4.9
			c2.6,0.7,6.3,1.7,6.8-1.4c2.9-20.6,3.1-41.3-0.6-62.1c-3-17.1-9.1-33.9-16.6-50.3c-3.2-7-6.6-14-10.2-20.9c3-1.9,6.1-3.7,9.2-5.5
			c14.4-8.1,29.4-15.5,45.1-21c9.2-3.2,18.6-5.7,28.2-7.3C252.2,160.6,252.6,160,252.3,159.1z"/>
		<path class="st0" d="M77.3,4.1L77.3,4.1C77.3,4.1,77.3,4.1,77.3,4.1z"/>
	</g>
</g>
</svg>
