<svg xmlns="http://www.w3.org/2000/svg" viewBox="0 0 252.46 330.53"><g id="Capa_2" data-name="Capa 2"><g id="Capa_1-2" data-name="Capa 1"><g id="Capa_2-2" data-name="Capa 2"><g id="Capa_1-2-2" data-name="Capa 1-2"><path d="M95,155.4v-1.1A2,2,0,0,1,95,155.4Z"/><path d="M252.36,159.1a3.45,3.45,0,0,0-1.7-2.9,27.35,27.35,0,0,0-4.8-3.6,55.06,55.06,0,0,0-6.7-3.8,77.67,77.67,0,0,0-16.3-6l-4.5-.9a14.38,14.38,0,0,0-6.2.1c-23.8,3.9-46.2,13.5-67.3,25-2.4,1.3-8,4.6-8,4.7-.8.5-1.6.9-2.3,1.4a233.43,233.43,0,0,0-11.9-36.3c-2.9-7.1-6.1-14.3-9.3-21.4,3.1-1.7,6.3-3.4,9.4-5.1,14.7-7.6,30-14.4,45.9-19.2a163.62,163.62,0,0,1,28.4-6.2c1.1-.3,1.6-.9,1.3-1.8a3.36,3.36,0,0,0-1.6-2.9,33.15,33.15,0,0,0-4.6-3.8,55.18,55.18,0,0,0-6.6-4,83.27,83.27,0,0,0-16-6.7l-4.5-1.1a14.84,14.84,0,0,0-6.3-.2c-23.9,3-46.7,11.7-68.3,22.3-2.5,1.2-8.2,4.3-8.2,4.4a253,253,0,0,0-41,27.1c.4-3.3.8-6.6,1.3-9.8a250.07,250.07,0,0,1,20-67.7A229.85,229.85,0,0,1,81.76,6.9c.6-.8-3.9-2.6-4.4-2.8A63.27,63.27,0,0,0,66,1.3,66.6,66.6,0,0,0,54.16,0l-2.7.1a2.64,2.64,0,0,0-2.5,1,236.88,236.88,0,0,0-30.4,62.8,253.09,253.09,0,0,0-11.7,69.6c-.1,6.6,0,13.2.4,19.7-2.5,3.2-4.9,6.5-7.2,9.8a2.78,2.78,0,0,0,.9,2.7,12.61,12.61,0,0,0,3.4,3.5,46,46,0,0,0,5.3,3.7,2.18,2.18,0,0,0,.8.5,12.9,12.9,0,0,0,1.6.9c2,1.1,3.9,2,5.9,2.9,4.7,2.1,9.7,4.3,14.9,5.1,2.1.3,6,1.4,7.5-.8a220.49,220.49,0,0,1,36.3-40.8c3.4-3,7-5.8,10.6-8.6l-.8.6,1.3-1-.6.4c1.4-1,2.8-2.1,4.3-3.1a171.54,171.54,0,0,1,5.4,20.2c.8,3.9,1.4,7.9,2,11.9,0-.4-.1-.7-.1-1.1l.3,2.8a9.85,9.85,0,0,1-.2-1.7,182.71,182.71,0,0,1-.1,37.7c-4.4,3.8-8.6,7.7-12.7,11.9-1,1-1.9,1.9-2.8,2.9a220.9,220.9,0,0,0-25.6,33.2,2.85,2.85,0,0,0,1,2.7,11.7,11.7,0,0,0,3.6,3.4,61.2,61.2,0,0,0,13.8,7.4c4.8,1.9,9.9,3.9,15.1,4.5,2.1.2,6,1.1,7.4-1.1,3.8-6,7.9-11.8,12.3-17.5A193.34,193.34,0,0,1,126,228.7c2.4-2.5,4.8-4.9,7.3-7.2q5-4.65,10.2-9c1.4-1.1,2.7-2.2,4.1-3.3a193.09,193.09,0,0,1,6.2,20,117.42,117.42,0,0,1,2.4,11.8,180.91,180.91,0,0,1,1.1,41.6c-.4,4.7-.9,9.3-1.6,13.9a8.45,8.45,0,0,0,1.3,4.6,21,21,0,0,0,3.8,6,74.77,74.77,0,0,0,14.1,14l5.2,3.8a44.33,44.33,0,0,0,9.1,4.9c2.6.7,6.3,1.7,6.8-1.4,2.9-20.6,3.1-41.3-.6-62.1-3-17.1-9.1-33.9-16.6-50.3-3.2-7-6.6-14-10.2-20.9,3-1.9,6.1-3.7,9.2-5.5,14.4-8.1,29.4-15.5,45.1-21a171.81,171.81,0,0,1,28.2-7.3C252.26,160.6,252.66,160,252.36,159.1Z"/></g></g></g></g></svg>